<?xml version="1.0" encoding="UTF-8"?>
<svg xmlns="http://www.w3.org/2000/svg" version="1.1" viewBox="0 0 160 160">
  <!-- Generator: Adobe Illustrator 30.1.0, SVG Export Plug-In . SVG Version: 2.1.1 Build 136)  -->
  <defs>
    <style>
      .st0 {
        fill: #fff;
      }
    </style>
  </defs>
  <g id="BG">
    <rect width="160" height="160"/>
  </g>
  <g id="Layer_1">
    <path class="st0" d="M59.61,10.66h40.67l.49.62v11l-.49.49h-14.83v51.91h52.9v-14.96l.62-.62h9.77l.62.62v40.67l-.62.62h-9.77l-.62-.62v-14.58h-52.9v52.66h14.83l.49.49v9.89l-.49.5h-40.67l-.49-.5v-9.89l.49-.49h15.82v-52.66H22.4v14.58l-.62.62h-10.63l-.5-.62v-40.67l.5-.62h10.63l.62.62v14.96h53.03V22.77h-15.82l-.49-.49v-11l.49-.62Z"/>
  </g>
</svg>
